<!DOCTYPE svg PUBLIC "-//W3C//DTD SVG 1.1//EN" "http://www.w3.org/Graphics/SVG/1.1/DTD/svg11.dtd">
<!-- Uploaded to: SVG Repo, www.svgrepo.com, Transformed by: SVG Repo Mixer Tools -->
<svg fill="#000000" width="98px" height="98px" viewBox="0 0 24 24" id="schedule" data-name="Flat Line" xmlns="http://www.w3.org/2000/svg" class="icon flat-line">
<g id="SVGRepo_bgCarrier" stroke-width="0"/>
<g id="SVGRepo_tracerCarrier" stroke-linecap="round" stroke-linejoin="round"/>
<g id="SVGRepo_iconCarrier">
<path id="secondary" d="M21,15l-7,1,1,5H4a1,1,0,0,1-1-1V9H21Z" style="fill: #2ca9bc; stroke-width: 2;"/>
<path id="primary" d="M21,15l-6,6-1-5ZM20,4H4A1,1,0,0,0,3,5V20a1,1,0,0,0,1,1H15l6-6V5A1,1,0,0,0,20,4Zm0,0H4A1,1,0,0,0,3,5V9H21V5A1,1,0,0,0,20,4ZM17,3V5M12,3V5M7,3V5" style="fill: none; stroke: #000000; stroke-linecap: round; stroke-linejoin: round; stroke-width: 2;"/>
</g>
</svg>