<!DOCTYPE svg PUBLIC "-//W3C//DTD SVG 1.1//EN" "http://www.w3.org/Graphics/SVG/1.1/DTD/svg11.dtd">
<!-- Uploaded to: SVG Repo, www.svgrepo.com, Transformed by: SVG Repo Mixer Tools -->
<svg version="1.1" id="Layer_1" xmlns="http://www.w3.org/2000/svg" xmlns:xlink="http://www.w3.org/1999/xlink" viewBox="0 0 460 460" xml:space="preserve" width="98px" height="98px" fill="#000000">
<g id="SVGRepo_bgCarrier" stroke-width="0"/>
<g id="SVGRepo_tracerCarrier" stroke-linecap="round" stroke-linejoin="round"/>
<g id="SVGRepo_iconCarrier"> <g id="XMLID_1329_"> <polygon id="XMLID_1330_" style="fill:#FFD488;" points="160,105 130,105 130,65 160,55 "/> <polygon id="XMLID_1331_" style="fill:#FFB739;" points="330,105 300,105 300,55 330,65 "/> <polygon id="XMLID_1332_" style="fill:#233145;" points="230,35 210,50 230,65 330,65 330,35 "/> <rect id="XMLID_1333_" x="130" y="35" style="fill:#466289;" width="100" height="30"/> <polygon id="XMLID_1334_" style="fill:#466289;" points="210,235 230,425 460,425 460,165 "/> <polygon id="XMLID_1335_" style="fill:#233145;" points="460,95 460,165 270,245 210,255 230,95 "/> <polygon id="XMLID_1336_" style="fill:#6B81A1;" points="0,165 0,425 230,425 230,235 "/> <polygon id="XMLID_1337_" style="fill:#466289;" points="230,95 230,255 190,245 0,165 0,95 "/> <polygon id="XMLID_1338_" style="fill:#FB992D;" points="270,275 270,305 230,305 220,275 243.5,265 "/> <polygon id="XMLID_1339_" style="fill:#FFB739;" points="270,245 270,275 220,275 230,245 "/> <polygon id="XMLID_1340_" style="fill:#FFB739;" points="230,275 230,305 190,305 190,275 210,265 "/> <rect id="XMLID_1341_" x="190" y="245" style="fill:#FFD488;" width="40" height="30"/> </g> </g>
</svg>